<?xml version="1.0" encoding="UTF-8"?><svg id="Layer_1" xmlns="http://www.w3.org/2000/svg" viewBox="0 0 475.17 144"><defs><style>.cls-1{fill:#eaeaea;stroke-width:0px;}</style></defs><polygon class="cls-1" points="1.11 39.58 184.85 39.58 185.59 38.53 0 38.53 0 121.95 68.34 121.95 68.34 120.9 1.11 120.9 1.11 39.58"/><polygon class="cls-1" points="239.74 38.7 240.46 39.58 474.06 39.58 474.06 120.9 409.06 120.9 409.06 121.95 475.17 121.95 475.17 38.53 239.74 38.7"/><path class="cls-1" d="m238.45,55.45c-2.61-2.89-6.22-5.08-6.51-9.86-2.78,3.18-2.94,4.77-3,8.02-.05,2.18-.4,2.5-2.06,4.12-3.16-1.62-4.48-2.28-3.54-6.51.33-1.51,1.11-2.85,1.54-4.33.52-1.78,1.03-3.79,1.17-5.64.23-2.93-.44-5.61-2.69-7.66-.81,4.88-5.84,5.89-8.15,9.3.45-1.68,1.13-3.23,1.99-4.69,3.2-5.47,4.26-11.22,2.18-17.27-.89-2.62-2.53-4.73-5.45-6.06,1.15,5.79-.03,9.59-4.32,13.7-2,1.93-4.15,3.7-6.28,5.5-8.14,6.81-12.71,14.64-11.47,25.24.31,2.66.15,1.52.86,4.49-4.83-3.47-5.22-4.5-5.12-9.76-1.35,2.04-2.06,2.79-3.25,4.85-6.12,10.66-4.53,25.03,4.37,32.56,3.4,2.88,7.33,5,11.51,6.38-5.8-4-9.6-10.72-9.6-18.34,0-12.26,9.85-22.2,22.01-22.2s22.01,9.94,22.01,22.2c0,7.32-3.53,13.8-8.94,17.84,3.57-1.34,6.93-3.21,9.91-5.68,10.71-8.84,12.06-25.98,2.84-36.21Z"/><path class="cls-1" d="m202.84,88.66c0-5.79,4.7-10.47,10.47-10.47h15.1l-2.57-2.57h6.3c-1.76-9.12-9.78-15.99-19.4-15.99-10.91,0-19.76,8.86-19.76,19.76s8.86,19.76,19.76,19.76h.3c-5.65-.16-10.19-4.78-10.19-10.49Zm20.72-21.36c.8,0,1.46.64,1.46,1.46s-.64,1.46-1.46,1.46-1.44-.66-1.44-1.46.64-1.46,1.44-1.46Zm-26.37,6.61l11.36-6.61-2.54,7.92-8.82-1.3Z"/><path class="cls-1" d="m208.55,96.77c16.65,3.5,21.31-9.79,21.31-9.79h-10.14c-4,8.77-11.17,9.79-11.17,9.79Z"/><path class="cls-1" d="m18.46,98.24v-2.5c1.25-.04,2.15-.29,2.7-.77.55-.47.9-1.18,1.05-2.13.15-.94.23-2.14.23-3.58v-23.15c0-1.02.02-1.94.06-2.75.04-.81.08-1.47.11-1.96-.64.04-1.34.08-2.1.11-.76.04-1.44.08-2.04.11v-3.12c2.27-.04,4.54-.07,6.81-.09,2.27-.02,4.6-.03,6.98-.03,4.46,0,7.96.81,10.5,2.41,2.53,1.61,3.75,4.11,3.63,7.52-.04,1.17-.39,2.34-1.05,3.49-.66,1.16-1.66,2.18-2.98,3.07-1.33.89-2.97,1.54-4.94,1.96v.11c4.05.19,7.07,1.24,9.08,3.15,2,1.91,3.01,4.23,3.01,6.95,0,2.35-.6,4.36-1.79,6.04-1.19,1.68-2.8,2.96-4.82,3.83-2.02.87-4.34,1.31-6.95,1.31h-17.48Zm9.82-2.84c.64,0,1.34.01,2.1.03.76.02,1.48.03,2.18.03h1.56c2.72-.04,4.86-.77,6.41-2.21,1.55-1.44,2.33-3.44,2.33-6.02,0-2.12-.43-3.77-1.28-4.96-.85-1.19-1.96-2.03-3.32-2.52-1.36-.49-2.82-.74-4.37-.74-1.06,0-2.01.01-2.86.03-.85.02-1.71.05-2.58.08v11.63c0,1.02,0,1.93-.03,2.72-.02.8-.07,1.44-.14,1.93Zm.17-19.06l3.74-.12c1.97-.04,3.53-.45,4.68-1.25,1.15-.8,1.98-1.82,2.47-3.07.49-1.25.72-2.55.68-3.91,0-1.89-.4-3.33-1.19-4.31-.79-.98-1.78-1.66-2.95-2.04-1.17-.38-2.33-.57-3.46-.57-1.06,0-1.87.15-2.44.45-.57.3-.96.82-1.19,1.56-.23.74-.34,1.82-.34,3.26v9.99Z"/><path class="cls-1" d="m52.16,98.24v-2.55c1.14,0,2.01-.3,2.61-.91.6-.6,1.12-1.43,1.53-2.47s.87-2.2,1.36-3.49l11.46-31.37h2.27l12.43,31.83c.3.72.64,1.69,1.02,2.92.38,1.23.55,2.28.51,3.15.64-.08,1.28-.12,1.9-.14.62-.02,1.22-.05,1.79-.08v3.12h-13.79v-2.5c1.32-.04,2.2-.33,2.64-.88.43-.55.6-1.22.51-2.01-.09-.8-.29-1.59-.6-2.38l-1.7-4.6-13.9.34-1.65,4.94c-.23.76-.47,1.47-.74,2.16-.27.68-.53,1.34-.79,1.99.68-.08,1.41-.12,2.18-.14.77-.02,1.47-.05,2.07-.09v3.18h-11.12Zm11.06-15.09h11.92l-3.57-9.59c-.45-1.25-.89-2.49-1.31-3.72-.42-1.23-.79-2.41-1.13-3.55h-.06c-.3.94-.64,1.99-1.02,3.12-.38,1.14-.81,2.37-1.3,3.69l-3.52,10.04Z"/><path class="cls-1" d="m93.91,98.24v-2.5c1.25-.08,2.15-.34,2.7-.8.55-.45.9-1.13,1.05-2.04.15-.91.23-2.06.23-3.46v-23.6c0-.83.02-1.64.06-2.41.04-.78.08-1.45.11-2.01-.64.04-1.34.08-2.1.11-.76.04-1.44.08-2.04.11v-3.12c2.31-.04,4.63-.07,6.98-.09,2.34-.02,4.71,0,7.09.03,3.55,0,6.49.41,8.79,1.22,2.31.81,4.04,2.01,5.19,3.6,1.15,1.59,1.71,3.59,1.67,6.01.04,1.51-.27,3.02-.91,4.51-.64,1.49-1.72,2.83-3.23,4-1.51,1.17-3.59,2.06-6.24,2.67.76.45,1.44,1.08,2.04,1.87s1.23,1.68,1.87,2.67l3.46,5.33c.72,1.13,1.38,2.1,1.99,2.89.6.79,1.28,1.41,2.04,1.84.76.44,1.66.65,2.72.65v2.5h-7.89c-.98-.83-1.83-1.73-2.53-2.7-.7-.96-1.45-2.05-2.24-3.26l-3.91-6.36c-.49-.76-1.01-1.57-1.56-2.44-.55-.87-1.14-1.61-1.79-2.21h-3.57v9.36c0,1.02,0,1.94-.03,2.75-.02.81-.07,1.47-.14,1.96.45-.04.94-.07,1.45-.08s1.02-.05,1.53-.08c.51-.04.95-.06,1.33-.06v3.12h-14.13Zm13.28-19.74c2.08-.04,3.86-.37,5.33-.99s2.61-1.59,3.4-2.89c.79-1.31,1.19-3,1.19-5.08,0-1.55-.23-2.85-.68-3.91-.45-1.06-1.1-1.92-1.93-2.58-.83-.66-1.83-1.13-2.98-1.42-1.15-.28-2.39-.43-3.72-.43-1.21,0-2.09.23-2.64.68s-.9,1.11-1.05,1.99c-.15.87-.23,1.99-.23,3.35v11.12c.57.04,1.11.08,1.62.14.51.06,1.07.07,1.67.03Z"/><path class="cls-1" d="m152.52,83.89c0-1.62-.24-2.8-.71-3.52-.47-.72-1.18-1.16-2.13-1.33-.95-.17-2.12-.22-3.52-.14l-3.29.11v11.8c0,1.02,0,1.92-.03,2.69-.02.78-.07,1.41-.14,1.9l9.76-.11c1.47-.04,2.8-.31,3.97-.82,1.17-.51,2.1-1.39,2.78-2.64.68-1.25,1.02-2.95,1.02-5.11h2.5l-.34,11.52h-29.5v-2.5c1.25-.08,2.15-.34,2.7-.8.55-.45.9-1.13,1.05-2.04.15-.91.23-2.06.23-3.46v-23.6c0-.83.02-1.64.06-2.41.04-.78.08-1.45.11-2.01-.64.04-1.34.08-2.1.11-.76.04-1.44.08-2.04.11v-3.12h27.69l.28,10.27h-2.5c0-2.16-.35-3.8-1.05-4.94-.7-1.14-1.61-1.89-2.72-2.27s-2.32-.55-3.6-.51l-3.97.11c-1.17,0-2.06.2-2.67.6-.6.4-1,1.04-1.19,1.93-.19.89-.28,2.09-.28,3.6v8.91h9.36l-.34-4.88h3.12v12.54h-2.5Z"/><path class="cls-1" d="m261.38,98.24v-2.5c1.25-.04,2.15-.29,2.7-.77.55-.47.9-1.18,1.05-2.13.15-.94.23-2.14.23-3.58v-23.15c0-1.02.02-1.94.06-2.75.04-.81.07-1.47.11-1.96-.64.04-1.34.08-2.1.11-.76.04-1.44.08-2.04.11v-3.12c2.27-.04,4.54-.07,6.81-.09,2.27-.02,4.6-.03,6.98-.03,4.46,0,7.96.81,10.5,2.41,2.53,1.61,3.74,4.11,3.63,7.52-.04,1.17-.39,2.34-1.05,3.49-.66,1.16-1.66,2.18-2.98,3.07-1.33.89-2.97,1.54-4.94,1.96v.11c4.04.19,7.07,1.24,9.08,3.15,2.01,1.91,3.01,4.23,3.01,6.95,0,2.35-.6,4.36-1.79,6.04-1.19,1.68-2.8,2.96-4.82,3.83-2.02.87-4.34,1.31-6.95,1.31h-17.47Zm9.82-2.84c.64,0,1.34.01,2.1.03.76.02,1.48.03,2.18.03h1.56c2.72-.04,4.86-.77,6.41-2.21s2.33-3.44,2.33-6.02c0-2.12-.43-3.77-1.28-4.96-.85-1.19-1.96-2.03-3.32-2.52s-2.82-.74-4.37-.74c-1.06,0-2.01.01-2.87.03-.85.02-1.71.05-2.58.08v11.63c0,1.02-.01,1.93-.03,2.72-.02.8-.07,1.44-.14,1.93Zm.17-19.06l3.75-.12c1.97-.04,3.53-.45,4.68-1.25,1.15-.8,1.98-1.82,2.47-3.07.49-1.25.72-2.55.68-3.91,0-1.89-.4-3.33-1.19-4.31-.79-.98-1.78-1.66-2.95-2.04s-2.32-.57-3.46-.57c-1.06,0-1.87.15-2.44.45s-.96.82-1.19,1.56c-.23.74-.34,1.82-.34,3.26v9.99Z"/><path class="cls-1" d="m320.04,99.15c-3.6,0-6.67-.61-9.22-1.82-2.55-1.21-4.62-2.83-6.21-4.85-1.59-2.02-2.76-4.26-3.52-6.72s-1.13-4.92-1.13-7.37.41-4.79,1.22-7.23c.81-2.44,2.04-4.68,3.69-6.72,1.65-2.04,3.71-3.69,6.18-4.94,2.48-1.25,5.38-1.87,8.71-1.87s6.48.62,8.99,1.87c2.51,1.25,4.59,2.9,6.21,4.96,1.62,2.06,2.84,4.3,3.66,6.72.81,2.42,1.22,4.82,1.22,7.21s-.41,4.74-1.22,7.18c-.81,2.44-2.04,4.69-3.69,6.75-1.64,2.06-3.7,3.71-6.15,4.96-2.46,1.25-5.37,1.87-8.74,1.87Zm.28-2.95c2.19,0,4.09-.49,5.7-1.47s2.93-2.3,3.97-3.94c1.04-1.65,1.81-3.46,2.3-5.45s.74-3.96.74-5.93c0-2.42-.28-4.76-.85-7.01-.57-2.25-1.43-4.27-2.58-6.07s-2.58-3.22-4.28-4.26c-1.7-1.04-3.67-1.56-5.9-1.56s-4.1.51-5.73,1.53c-1.62,1.02-2.95,2.35-3.97,4-1.02,1.65-1.79,3.46-2.3,5.45-.51,1.99-.76,3.98-.76,5.98s.26,4.05.79,6.24c.53,2.19,1.34,4.24,2.44,6.13,1.09,1.89,2.5,3.42,4.23,4.59,1.72,1.17,3.79,1.76,6.21,1.76Z"/><path class="cls-1" d="m376.72,99.04l-21.11-28.03c-.42-.49-.81-1-1.19-1.53-.38-.53-.78-1.08-1.19-1.64h-.06l.17,22.07c0,.94-.01,1.89-.03,2.84s-.07,1.81-.14,2.61c.64-.08,1.35-.12,2.13-.14.77-.02,1.45-.05,2.01-.08v3.12h-11.24v-2.5c1.06,0,1.86-.21,2.41-.62.55-.42.93-.96,1.14-1.65.21-.68.31-1.47.31-2.38v-27.69c0-.76.02-1.42.06-1.99-.61.04-1.28.08-2.02.11-.74.04-1.39.08-1.96.11v-3.12h7.49l19.97,26.27c.64.83,1.22,1.61,1.73,2.33s1.01,1.4,1.5,2.04h.06l.06-23.32c0-.83.02-1.64.06-2.41s.08-1.45.12-2.01c-.68.04-1.4.08-2.16.11s-1.42.08-1.99.11v-3.12h11.23v2.5c-1.21.04-2.09.29-2.64.76-.55.47-.89,1.16-1.02,2.04-.13.89-.2,2.05-.2,3.49l-.06,31.72h-3.46Z"/><path class="cls-1" d="m411.33,83.89c0-1.62-.24-2.8-.71-3.52-.47-.72-1.18-1.16-2.13-1.33-.94-.17-2.12-.22-3.52-.14l-3.29.11v11.8c0,1.02-.01,1.92-.03,2.69-.02.78-.07,1.41-.14,1.9l9.76-.11c1.47-.04,2.8-.31,3.97-.82s2.1-1.39,2.78-2.64c.68-1.25,1.02-2.95,1.02-5.11h2.5l-.34,11.52h-29.5v-2.5c1.25-.08,2.15-.34,2.7-.8.55-.45.9-1.13,1.05-2.04.15-.91.23-2.06.23-3.46v-23.6c0-.83.02-1.64.06-2.41.04-.78.07-1.45.11-2.01-.64.04-1.34.08-2.1.11-.76.04-1.44.08-2.04.11v-3.12h27.69l.28,10.27h-2.5c0-2.16-.35-3.8-1.05-4.94-.7-1.14-1.61-1.89-2.72-2.27s-2.32-.55-3.6-.51l-3.97.11c-1.17,0-2.06.2-2.67.6-.61.4-1,1.04-1.19,1.93-.19.89-.28,2.09-.28,3.6v8.91h9.36l-.34-4.88h3.12v12.54h-2.5Z"/><path class="cls-1" d="m451.84,70.78c-.19-1.93-.68-3.67-1.47-5.22s-1.89-2.79-3.29-3.71c-1.4-.93-3.14-1.37-5.22-1.33-2.12,0-3.8.59-5.05,1.76-1.25,1.17-1.87,2.59-1.87,4.26,0,1.47.41,2.72,1.25,3.72s1.96,1.9,3.38,2.7c1.42.79,3.02,1.59,4.79,2.38,1.44.61,2.89,1.29,4.37,2.04,1.48.76,2.82,1.62,4.03,2.58,1.21.96,2.17,2.12,2.89,3.46.72,1.34,1.08,2.92,1.08,4.74,0,2.12-.55,4.01-1.64,5.67-1.1,1.66-2.66,2.97-4.68,3.91-2.02.94-4.47,1.42-7.35,1.42-1.63,0-3.34-.25-5.14-.74s-3.43-1.19-4.91-2.1l.28,2.38h-3.46l-.23-12.48h2.72c.3,3.29,1.49,5.78,3.55,7.46,2.06,1.68,4.53,2.52,7.4,2.52,1.44,0,2.74-.27,3.91-.8s2.1-1.29,2.78-2.27c.68-.98,1.02-2.14,1.02-3.46,0-1.55-.46-2.85-1.39-3.91-.93-1.06-2.1-1.97-3.52-2.72-1.42-.76-2.9-1.47-4.45-2.15s-3.06-1.4-4.51-2.15c-1.46-.76-2.77-1.63-3.94-2.61-1.17-.98-2.1-2.15-2.78-3.49-.68-1.34-1.02-2.92-1.02-4.74,0-1.06.19-2.17.57-3.35.38-1.17,1.02-2.29,1.93-3.35.91-1.06,2.15-1.92,3.71-2.58,1.57-.66,3.55-.99,5.93-.99,1.44,0,3.05.21,4.85.62,1.79.42,3.43,1.15,4.91,2.21l-.23-2.38h3.4v12.71h-2.61Z"/><path class="cls-1" d="m85.4,116.71v4.67h5.59v1.68h-5.59v5.91h-2.08v-13.93h8.63v1.68h-6.56Z"/><path class="cls-1" d="m100.63,128.96h-2.08v-13.93h2.08v13.93Z"/><path class="cls-1" d="m115.54,117.31c-.07.11-.13.19-.2.24-.07.05-.16.08-.27.08-.12,0-.25-.05-.4-.16-.15-.11-.33-.23-.56-.36-.22-.13-.49-.25-.8-.36s-.68-.16-1.12-.16c-.41,0-.76.05-1.07.16-.31.11-.56.25-.77.44-.21.18-.36.4-.47.65-.11.25-.16.52-.16.81,0,.37.1.68.29.93.19.25.44.46.75.63.31.17.66.33,1.06.45.39.13.8.27,1.21.4s.82.3,1.21.48c.39.18.75.41,1.06.68.31.28.56.61.75,1.01.19.4.29.88.29,1.46,0,.61-.11,1.19-.31,1.72-.21.54-.52,1.01-.92,1.41-.4.4-.89.71-1.48.94s-1.25.34-1.99.34c-.45,0-.88-.04-1.3-.13s-.82-.21-1.19-.37c-.38-.16-.73-.35-1.05-.57-.33-.22-.62-.47-.88-.75l.59-.99c.06-.08.13-.14.21-.2.08-.05.17-.08.28-.08.14,0,.29.07.47.21.18.14.4.3.66.47.26.17.58.33.94.47.36.14.81.21,1.33.21.43,0,.81-.06,1.14-.17.34-.11.62-.27.85-.48.23-.21.41-.46.53-.76.12-.3.18-.63.18-.99,0-.41-.09-.74-.28-1s-.44-.48-.75-.65c-.31-.17-.66-.32-1.06-.45-.39-.12-.8-.25-1.21-.38s-.82-.28-1.21-.46c-.39-.17-.75-.4-1.06-.68-.31-.28-.56-.63-.75-1.06-.19-.42-.28-.94-.28-1.57,0-.5.1-.98.29-1.44.19-.47.48-.88.85-1.24.37-.36.83-.65,1.37-.86.54-.22,1.16-.32,1.86-.32.78,0,1.5.12,2.16.37.66.25,1.23.61,1.71,1.07l-.5.98Z"/><path class="cls-1" d="m134.56,115.04v13.93h-2.07v-6.27h-7.26v6.27h-2.08v-13.93h2.08v6.15h7.26v-6.15h2.07Z"/><path class="cls-1" d="m162.84,115.04v13.93h-2.07v-6.27h-7.26v6.27h-2.08v-13.93h2.08v6.15h7.26v-6.15h2.07Z"/><path class="cls-1" d="m183.52,122c0,1.04-.17,2-.5,2.87-.33.87-.8,1.62-1.41,2.25-.61.63-1.33,1.12-2.18,1.47s-1.79.52-2.82.52-1.97-.17-2.82-.52-1.58-.84-2.18-1.47c-.6-.63-1.08-1.38-1.41-2.25-.34-.87-.5-1.82-.5-2.87s.17-1.99.5-2.86c.34-.87.81-1.62,1.41-2.25.6-.63,1.33-1.12,2.18-1.47s1.79-.53,2.82-.53,1.97.18,2.82.53,1.57.84,2.18,1.47c.61.63,1.08,1.38,1.41,2.25.33.87.5,1.82.5,2.86Zm-2.11,0c0-.83-.11-1.57-.34-2.23-.23-.66-.55-1.22-.96-1.68-.42-.46-.92-.81-1.51-1.06s-1.25-.37-1.98-.37-1.39.12-1.98.37-1.1.6-1.52,1.06c-.42.46-.74,1.02-.97,1.68-.23.66-.34,1.4-.34,2.23s.11,1.58.34,2.24c.23.66.55,1.21.97,1.67.42.46.93.81,1.52,1.05s1.25.36,1.98.36,1.39-.12,1.98-.36,1.1-.59,1.51-1.05c.42-.46.74-1.02.96-1.67.23-.66.34-1.4.34-2.24Z"/><path class="cls-1" d="m195.81,127.31c.56,0,1.05-.1,1.49-.28.44-.19.81-.45,1.11-.79.3-.34.54-.74.7-1.21s.24-.99.24-1.56v-8.43h2.05v8.43c0,.81-.13,1.57-.39,2.26-.26.69-.63,1.29-1.11,1.79-.49.5-1.07.9-1.77,1.18-.69.28-1.47.43-2.34.43s-1.65-.14-2.34-.43c-.69-.28-1.28-.68-1.76-1.18-.49-.5-.86-1.1-1.12-1.79-.26-.69-.39-1.44-.39-2.26v-8.43h2.07v8.42c0,.57.08,1.09.24,1.56s.39.88.69,1.22c.3.34.68.6,1.12.79.44.19.94.28,1.49.28Z"/><path class="cls-1" d="m216.16,117.31c-.07.11-.13.19-.2.24-.07.05-.16.08-.27.08-.12,0-.25-.05-.4-.16-.15-.11-.33-.23-.56-.36-.22-.13-.49-.25-.8-.36s-.68-.16-1.12-.16c-.41,0-.76.05-1.07.16-.31.11-.56.25-.77.44-.21.18-.36.4-.47.65-.11.25-.16.52-.16.81,0,.37.1.68.29.93.19.25.44.46.75.63.31.17.66.33,1.06.45.39.13.8.27,1.21.4s.82.3,1.21.48c.39.18.75.41,1.06.68.31.28.56.61.75,1.01.19.4.29.88.29,1.46,0,.61-.11,1.19-.31,1.72-.21.54-.52,1.01-.92,1.41-.4.4-.89.71-1.48.94s-1.25.34-1.99.34c-.45,0-.88-.04-1.3-.13s-.82-.21-1.19-.37c-.38-.16-.73-.35-1.05-.57-.33-.22-.62-.47-.88-.75l.59-.99c.06-.08.13-.14.21-.2.08-.05.17-.08.28-.08.14,0,.29.07.47.21.18.14.4.3.66.47.26.17.58.33.94.47.36.14.81.21,1.33.21.43,0,.81-.06,1.14-.17.34-.11.62-.27.85-.48.23-.21.41-.46.53-.76.12-.3.18-.63.18-.99,0-.41-.09-.74-.28-1s-.44-.48-.75-.65c-.31-.17-.66-.32-1.06-.45-.39-.12-.8-.25-1.21-.38s-.82-.28-1.21-.46c-.39-.17-.75-.4-1.06-.68-.31-.28-.56-.63-.75-1.06-.19-.42-.28-.94-.28-1.57,0-.5.1-.98.29-1.44.19-.47.48-.88.85-1.24.37-.36.83-.65,1.37-.86.54-.22,1.16-.32,1.86-.32.78,0,1.5.12,2.16.37.66.25,1.23.61,1.71,1.07l-.5.98Z"/><path class="cls-1" d="m232.41,127.29v1.68h-8.64v-13.93h8.63v1.68h-6.56v4.41h5.28v1.62h-5.28v4.54h6.57Z"/><path class="cls-1" d="m260.4,128.96h-1.84c-.21,0-.37-.02-.49-.07-.12-.05-.25-.15-.4-.31l-1.29-1.3c-.61.57-1.3,1.02-2.09,1.34-.78.33-1.65.49-2.58.49-.52,0-1.04-.09-1.54-.27-.5-.18-.95-.43-1.34-.77-.4-.34-.71-.75-.96-1.23s-.36-1.03-.36-1.63c0-.45.08-.87.22-1.28.15-.4.36-.78.62-1.12s.58-.65.94-.92.76-.5,1.19-.7c-.38-.5-.66-.98-.84-1.45-.18-.47-.27-.95-.27-1.44s.09-.92.26-1.34c.17-.42.42-.78.75-1.09.32-.31.72-.56,1.19-.74.47-.18,1-.27,1.59-.27.52,0,1,.08,1.43.25.43.17.8.39,1.11.66s.55.6.73.96c.18.36.28.74.31,1.14l-1.18.24c-.24.05-.41-.05-.52-.32-.05-.17-.12-.34-.22-.51-.09-.17-.22-.33-.37-.47s-.33-.25-.55-.35c-.22-.09-.46-.13-.74-.13-.31,0-.59.05-.84.15-.25.1-.46.25-.63.42-.18.18-.31.39-.4.63s-.14.5-.14.77c0,.21.03.42.08.63.05.2.13.41.24.61.11.2.24.41.41.62.17.21.37.43.6.67l3.93,4.03c.24-.43.43-.88.57-1.35.14-.47.23-.94.28-1.41.01-.13.05-.23.12-.31.07-.08.17-.12.3-.12h1.17c0,.78-.13,1.53-.36,2.27-.23.73-.56,1.41-.99,2.04l2.91,2.98Zm-9.07-6.77c-.64.36-1.12.78-1.43,1.28-.31.5-.47,1.03-.47,1.59,0,.4.07.76.22,1.07.15.31.34.58.58.79.24.22.52.38.83.49.31.11.64.17.96.17.69,0,1.3-.12,1.85-.36.55-.24,1.04-.57,1.46-.98l-4.01-4.04Z"/><path class="cls-1" d="m282.9,117.31c-.06.11-.13.19-.2.24-.07.05-.16.08-.27.08-.12,0-.25-.05-.4-.16-.15-.11-.33-.23-.56-.36-.22-.13-.49-.25-.8-.36-.31-.11-.68-.16-1.11-.16-.41,0-.76.05-1.07.16-.31.11-.56.25-.77.44s-.36.4-.47.65c-.11.25-.16.52-.16.81,0,.37.09.68.28.93.19.25.44.46.75.63.31.17.66.33,1.06.45.39.13.8.27,1.21.4.41.14.82.3,1.21.48.4.18.75.41,1.06.68.31.28.56.61.75,1.01.19.4.28.88.28,1.46,0,.61-.1,1.19-.31,1.72-.21.54-.51,1.01-.92,1.41s-.89.71-1.48.94c-.59.23-1.25.34-1.99.34-.45,0-.88-.04-1.3-.13-.42-.09-.82-.21-1.19-.37-.38-.16-.73-.35-1.05-.57-.33-.22-.62-.47-.88-.75l.59-.99c.06-.08.13-.14.21-.2.08-.05.17-.08.28-.08.13,0,.29.07.47.21.18.14.4.3.66.47.26.17.58.33.94.47.36.14.81.21,1.33.21.43,0,.81-.06,1.14-.17.33-.11.62-.27.85-.48.23-.21.41-.46.53-.76.12-.3.18-.63.18-.99,0-.41-.09-.74-.28-1s-.44-.48-.75-.65-.66-.32-1.06-.45c-.4-.12-.8-.25-1.21-.38-.41-.13-.82-.28-1.21-.46-.4-.17-.75-.4-1.06-.68-.31-.28-.56-.63-.75-1.06s-.28-.94-.28-1.57c0-.5.1-.98.29-1.44.19-.47.48-.88.85-1.24.37-.36.83-.65,1.37-.86.54-.22,1.16-.32,1.86-.32.78,0,1.5.12,2.16.37.66.25,1.23.61,1.71,1.07l-.5.98Z"/><path class="cls-1" d="m305.16,115.04v13.93h-1.81v-9.91c0-.15,0-.31.02-.47,0-.17.02-.34.03-.51l-4.64,8.5c-.16.32-.41.48-.75.48h-.29c-.34,0-.58-.16-.74-.48l-4.72-8.53c.04.36.06.7.06,1.02v9.91h-1.81v-13.93h1.53c.18,0,.32.02.42.05.1.03.2.13.28.3l4.66,8.34c.09.17.18.35.25.53.08.19.15.37.22.56.14-.38.3-.75.48-1.11l4.57-8.33c.08-.16.18-.26.28-.3.1-.04.24-.05.42-.05h1.53Z"/><path class="cls-1" d="m325.84,122c0,1.04-.17,2-.5,2.87-.33.87-.8,1.62-1.41,2.25-.61.63-1.33,1.12-2.18,1.47s-1.79.52-2.82.52-1.97-.17-2.82-.52c-.85-.35-1.58-.84-2.18-1.47-.6-.63-1.08-1.38-1.41-2.25-.33-.87-.5-1.82-.5-2.87s.17-1.99.5-2.86c.34-.87.81-1.62,1.41-2.25.6-.63,1.33-1.12,2.18-1.47.85-.35,1.79-.53,2.82-.53s1.98.18,2.82.53,1.57.84,2.18,1.47c.61.63,1.08,1.38,1.41,2.25.33.87.5,1.82.5,2.86Zm-2.12,0c0-.83-.11-1.57-.34-2.23-.23-.66-.55-1.22-.96-1.68-.42-.46-.92-.81-1.51-1.06-.59-.25-1.25-.37-1.98-.37s-1.39.12-1.98.37c-.59.25-1.1.6-1.52,1.06-.42.46-.74,1.02-.97,1.68-.23.66-.34,1.4-.34,2.23s.11,1.58.34,2.24c.23.66.55,1.21.97,1.67.42.46.93.81,1.52,1.05.59.24,1.25.36,1.98.36s1.39-.12,1.98-.36c.59-.24,1.1-.59,1.51-1.05.42-.46.74-1.02.96-1.67s.34-1.4.34-2.24Z"/><path class="cls-1" d="m334.76,121.06h.68c.25,0,.44-.03.6-.09s.29-.17.41-.31l4.43-5.15c.14-.17.29-.3.44-.36.15-.07.33-.1.55-.1h1.76l-5.16,5.93c-.13.17-.26.3-.38.41-.13.1-.26.19-.39.26.36.12.66.37.93.75l5.36,6.58h-1.79c-.13,0-.24,0-.33-.03s-.17-.05-.24-.08c-.07-.04-.13-.08-.18-.13-.05-.05-.11-.11-.15-.18l-4.59-5.43c-.07-.08-.13-.15-.19-.21-.07-.06-.14-.1-.22-.14-.08-.04-.18-.06-.29-.08-.11-.02-.24-.02-.39-.02h-.85v6.31h-2.07v-13.93h2.07v6.02Z"/><path class="cls-1" d="m358.57,127.29v1.68h-8.64v-13.93h8.63v1.68h-6.56v4.41h5.27v1.62h-5.27v4.54h6.56Z"/><path class="cls-1" d="m375.83,128.96h-1.84c-.37,0-.64-.15-.8-.44l-3.44-4.83c-.11-.16-.23-.28-.36-.35-.13-.07-.32-.1-.58-.1h-1.35v5.71h-2.07v-13.93h4.01c.9,0,1.67.09,2.32.28s1.19.45,1.61.79.74.75.94,1.23c.2.48.31,1.01.31,1.61,0,.48-.08.94-.22,1.37-.15.43-.37.81-.66,1.15-.29.34-.64.63-1.05.88-.41.25-.88.43-1.41.56.26.16.48.37.67.65l3.92,5.42Zm-6.5-7.22c.53,0,1-.06,1.4-.19.4-.13.74-.31,1.01-.55s.48-.52.61-.84c.14-.33.2-.69.2-1.08,0-.8-.26-1.41-.79-1.81-.53-.41-1.32-.61-2.37-.61h-1.95v5.09h1.88Z"/><path class="cls-1" d="m386.75,123.45v5.51h-2.06v-5.51l-5.1-8.42h1.81c.18,0,.33.04.44.13.11.09.2.2.27.35l3.03,5.21c.12.24.23.47.33.68s.19.42.27.63c.07-.21.15-.42.25-.63s.2-.44.33-.68l3.02-5.21c.07-.12.15-.23.27-.33s.26-.15.43-.15h1.82l-5.1,8.42Z"/></svg>